<svg xmlns="http://www.w3.org/2000/svg" viewBox="0 0 24 24">
  <!-- body -->
  <circle cx="12" cy="13" r="7" fill="#F5F7FA"></circle>

  <!-- eyes (bigger & rounder) -->
  <circle cx="9.5" cy="12.5" r="1.6" fill="#1E2D4B"></circle>
  <circle cx="14.5" cy="12.5" r="1.6" fill="#1E2D4B"></circle>

  <!-- eye shine -->
  <circle cx="9.9" cy="12.1" r="0.4" fill="#FFFFFF"></circle>
  <circle cx="14.9" cy="12.1" r="0.4" fill="#FFFFFF"></circle>

  <!-- cheeks -->
  <circle cx="7.8" cy="14.2" r="0.9" fill="#FFB4BE"></circle>
  <circle cx="16.2" cy="14.2" r="0.9" fill="#FFB4BE"></circle>

  <!-- mouth -->
  <path d="M10.2 15.3c1.2 1 2.4 1 3.6 0" stroke="#0064FF" stroke-width="1.4" stroke-linecap="round" fill="none"></path>

  <!-- sprout left -->
  <path d="M12 4c-2.2-.9-4.2-.3-5.4 1.2 1.6 1.8 3.7 2.5 5.7 2.1.3-1 .2-2-.3-3.3z" fill="#50C878"></path>

  <!-- sprout right -->
  <path d="M12 4c2.2-.9 4.2-.3 5.4 1.2-1.6 1.8-3.7 2.5-5.7 2.1-.3-1-.2-2 .3-3.3z" fill="#50C878"></path>
</svg>
